<?xml version="1.0" encoding="UTF-8" standalone="no"?>
<svg
   xmlns:dc="http://purl.org/dc/elements/1.1/"
   xmlns:cc="http://creativecommons.org/ns#"
   xmlns:rdf="http://www.w3.org/1999/02/22-rdf-syntax-ns#"
   xmlns:svg="http://www.w3.org/2000/svg"
   xmlns="http://www.w3.org/2000/svg"
   xmlns:sodipodi="http://sodipodi.sourceforge.net/DTD/sodipodi-0.dtd"
   xmlns:inkscape="http://www.inkscape.org/namespaces/inkscape"
   height="300"
   id="svg2"
   version="1.1"
   width="300"
   sodipodi:docname="soc-lin.svg"
   inkscape:version="0.92.3 (2405546, 2018-03-11)">
  <metadata
     id="metadata8">
    <rdf:RDF>
      <cc:Work
         rdf:about="">
        <dc:format>image/svg+xml</dc:format>
        <dc:type
           rdf:resource="http://purl.org/dc/dcmitype/StillImage" />
        <dc:title></dc:title>
      </cc:Work>
    </rdf:RDF>
  </metadata>
  <sodipodi:namedview
     pagecolor="#ffffff"
     bordercolor="#666666"
     borderopacity="1"
     objecttolerance="10"
     gridtolerance="10"
     guidetolerance="10"
     inkscape:pageopacity="0"
     inkscape:pageshadow="2"
     inkscape:window-width="1379"
     inkscape:window-height="1311"
     id="namedview6"
     showgrid="false"
     showguides="true"
     inkscape:guide-bbox="true"
     inkscape:zoom="0.944"
     inkscape:cx="190.37905"
     inkscape:cy="160.14159"
     inkscape:window-x="931"
     inkscape:window-y="283"
     inkscape:window-maximized="0"
     inkscape:current-layer="svg2"
     fit-margin-top="0"
     fit-margin-left="0"
     fit-margin-right="0"
     fit-margin-bottom="0">
    <sodipodi:guide
       position="150,150"
       orientation="1,0"
       id="guide4573"
       inkscape:locked="false"
       inkscape:label=""
       inkscape:color="rgb(0,0,255)" />
    <sodipodi:guide
       position="150,150"
       orientation="0,1"
       id="guide4575"
       inkscape:locked="false"
       inkscape:label=""
       inkscape:color="rgb(0,0,255)" />
  </sodipodi:namedview>
  <defs
     id="defs4" />
  <path
     style="opacity:1;fill:#c10000;fill-opacity:1;stroke:none;stroke-width:0.5635221;stroke-opacity:1"
     d="M 150,0 A 150,150 0 0 0 0,150 150,150 0 0 0 150,300 150,150 0 0 0 300,150 150,150 0 0 0 150,0 Z M 84.832031,63.40039 c 11.50929,0 20.830079,9.32008 20.830079,20.83008 0,11.55 -9.320789,20.84961 -20.830079,20.84961 C 73.322741,105.08008 64,95.74047 64,84.23047 c 0,-11.53 9.322741,-20.83008 20.832031,-20.83008 z m 101.492189,54.25977 c 2.98715,0.09 5.27957,-0.01 7.63281,0 v 0.0703 h 7.98633 c 15.71027,0.97 33.21755,13.24953 33.73242,42.01953 0.42405,23.69 0.29883,61.25031 0.29883,75.07031 h -35.71875 c 0,-14.14 0.15039,-43.36125 0.15039,-64.03125 0,-9.4 -4.22063,-22.04883 -19.25586,-22.04883 -16.55837,0 -20.58789,15.34883 -20.58789,22.04883 0,19.85 -0.16797,51.45125 -0.16797,64.03125 h -35.51367 c 0,-21.2 0.22461,-93.99101 0.22461,-114.54101 18.34036,0 27.11569,-0.0391 33.82617,-0.0391 0,6.75 -0.0566,11.25039 -0.0566,16.15039 5.60218,-11.32999 20.89799,-18.73046 27.44922,-18.73046 z M 67,120.96094 h 35.60547 V 235 H 67 Z"
     id="path4518"
     inkscape:connector-curvature="0" />
  <g
     id="layer1"
     transform="translate(413.76711,-1371.3826)" />
</svg>
